<svg width="139" height="39" viewBox="0 0 139 39" fill="none" xmlns="http://www.w3.org/2000/svg">
<path d="M52.0644 10.2149C50.247 10.2149 49.2992 11.0472 48.967 12.0264H45.6449C46.1139 9.48055 48.3514 7.32642 52.1817 7.32642C56.0119 7.32642 58.5621 9.39243 58.5621 13.0447V23.4237H55.3084V21.5927C54.7137 22.3035 53.9637 22.8674 53.1166 23.241C52.2693 23.6146 51.3476 23.7877 50.4229 23.7468C47.3939 23.7468 45 21.8962 45 18.8511C45 15.8059 47.4134 13.877 51.3218 13.877H55.1325V12.9859C55.1325 11.1354 53.8134 10.2149 52.0644 10.2149ZM55.1325 17.4705V16.5696H51.5661C49.7878 16.5696 48.5664 17.3334 48.5664 18.7531C48.5664 20.1729 49.6705 20.9367 51.2339 20.9367C53.276 20.8877 55.1325 19.5952 55.1325 17.4705Z" fill="white"/>
<path d="M61.9722 20.6428L70.0723 10.773H61.9722V7.69849H74.4888V10.4303L66.3887 20.3001H74.4888V23.4236H61.9722V20.6428Z" fill="white"/>
<path d="M81.9442 3.0279C81.9073 3.57793 81.6632 4.09336 81.2614 4.46986C80.8596 4.84636 80.33 5.05581 79.7799 5.05581C79.2298 5.05581 78.7003 4.84636 78.2984 4.46986C77.8966 4.09336 77.6525 3.57793 77.6156 3.0279C77.6525 2.47788 77.8966 1.96246 78.2984 1.58595C78.7003 1.20945 79.2298 1 79.7799 1C80.33 1 80.8596 1.20945 81.2614 1.58595C81.6632 1.96246 81.9073 2.47788 81.9442 3.0279ZM81.5142 23.4237H78.0162V7.7572H81.5142V23.4237Z" fill="white"/>
<path d="M108.756 13.2896V23.4238H105.258V13.9065C105.258 11.5075 103.88 10.4991 102.248 10.4991C101.803 10.4919 101.361 10.5786 100.95 10.7534C100.54 10.9283 100.171 11.1875 99.8674 11.5141C99.5635 11.8408 99.3315 12.2278 99.1862 12.65C99.0408 13.0722 98.9856 13.5203 99.0239 13.9652V23.4238H95.5356V13.9065C95.5356 11.5075 94.1482 10.4991 92.5262 10.4991C92.0793 10.4923 91.6361 10.579 91.2246 10.7536C90.8131 10.9281 90.4424 11.1868 90.1363 11.5129C89.8301 11.8391 89.5952 12.2256 89.4465 12.6479C89.2977 13.0701 89.2384 13.5188 89.2724 13.9652V23.4238H85.7744V7.75743H89.1552V9.53949C89.6555 8.83765 90.3194 8.2691 91.0891 7.88338C91.859 7.49767 92.7112 7.30653 93.5717 7.3266C94.488 7.30168 95.3943 7.52276 96.1965 7.96694C96.9988 8.41112 97.6681 9.06224 98.1347 9.85281C98.7266 9.05931 99.497 8.41696 100.383 7.978C101.27 7.53904 102.247 7.31586 103.235 7.3266C105.961 7.3266 108.756 9.04991 108.756 13.2896Z" fill="white"/>
<path d="M123.109 23.4236V21.5632C122.564 22.2682 121.861 22.8336 121.055 23.2132C120.25 23.5927 119.367 23.7756 118.478 23.7467C115.468 23.7467 112.742 21.9647 112.742 17.627V7.69849H116.24V16.9808C116.24 19.4385 117.559 20.5743 119.426 20.5743C119.917 20.5948 120.408 20.5095 120.863 20.3239C121.319 20.1384 121.73 19.8571 122.068 19.4988C122.406 19.1405 122.664 18.7137 122.823 18.2472C122.982 17.7808 123.04 17.2855 122.992 16.7948V7.69849H126.49V23.4236H123.109Z" fill="white"/>
<path d="M137.307 20.3294H138.284V23.4235H136.72C133.261 23.4235 131.571 21.9156 131.571 18.2927V10.6945H129.099V7.75707H131.61V3.60547H135.108V7.69832H138.284V10.6358H135.069V18.0186C135.108 19.9279 136.056 20.3294 137.307 20.3294Z" fill="white"/>
<path d="M49.6783 32.7256H50.6632V38.8943H49.6783V36.1624H46.706V38.8943H45.7211V32.7256H46.706V35.3517H49.6783V32.7256ZM52.4888 38.1276C52.0022 37.546 51.7589 36.7734 51.7589 35.8099C51.7589 34.8465 52.0022 34.0739 52.4888 33.4923C52.9812 32.9107 53.6789 32.6199 54.5817 32.6199C55.4845 32.6199 56.1793 32.9107 56.6659 33.4923C57.1583 34.0739 57.4045 34.8465 57.4045 35.8099C57.4045 36.7734 57.1583 37.546 56.6659 38.1276C56.1793 38.7092 55.4845 39 54.5817 39C53.6789 39 52.9812 38.7092 52.4888 38.1276ZM53.2274 34.0915C52.905 34.5322 52.7438 35.105 52.7438 35.8099C52.7438 36.5149 52.905 37.0907 53.2274 37.5372C53.5499 37.9778 54.0013 38.1981 54.5817 38.1981C55.1621 38.1981 55.6135 37.9778 55.936 37.5372C56.2584 37.0907 56.4196 36.5149 56.4196 35.8099C56.4196 35.105 56.2584 34.5322 55.936 34.0915C55.6135 33.645 55.1621 33.4218 54.5817 33.4218C54.0013 33.4218 53.5499 33.645 53.2274 34.0915ZM57.7493 33.5364V32.7256H62.5683V33.5364H60.6512V38.8943H59.6663V33.5364H57.7493ZM63.4978 38.8943V32.7256H67.7629V33.5011H64.4827V35.387H67.0681V36.1272H64.4827V38.1188H67.886V38.8943H63.4978ZM68.9768 38.8943V32.7256H69.9617V38.0835H72.9165V38.8943H68.9768ZM73.3718 36.9556L74.2952 36.9203C74.3362 37.7898 74.858 38.2245 75.8605 38.2245C76.2533 38.2245 76.5786 38.1511 76.8366 38.0042C77.0946 37.8574 77.2235 37.6253 77.2235 37.3081C77.2235 37.0848 77.1444 36.9027 76.9861 36.7617C76.8278 36.6148 76.5611 36.4797 76.1858 36.3563L74.9107 35.9421C74.0314 35.6601 73.5917 35.1196 73.5917 34.3207C73.5917 33.7567 73.791 33.3337 74.1896 33.0517C74.5942 32.7638 75.1013 32.6199 75.711 32.6199C76.3676 32.6199 76.904 32.7844 77.3203 33.1134C77.7424 33.4365 77.9739 33.8889 78.015 34.4705L77.1004 34.5322C77.077 34.1855 76.9451 33.9094 76.7047 33.7038C76.4702 33.4982 76.136 33.3954 75.7022 33.3954C75.3446 33.3954 75.0661 33.4717 74.8668 33.6245C74.6733 33.7714 74.5766 33.9799 74.5766 34.2502C74.5766 34.6673 74.8785 34.9728 75.4823 35.1666L76.7575 35.572C77.2441 35.7248 77.6075 35.9333 77.8479 36.1977C78.0883 36.4621 78.2084 36.8087 78.2084 37.2376C78.2084 37.825 77.9974 38.2657 77.5753 38.5594C77.1532 38.8532 76.5786 39 75.8517 39C75.072 39 74.471 38.8267 74.0489 38.4801C73.6268 38.1276 73.4011 37.6194 73.3718 36.9556Z" fill="white"/>
<path d="M13.5426 11.6422C15.145 11.6422 16.6889 11.7009 18.1545 11.7988C17.9395 4.30827 16.6107 0.391665 15.6336 0.391665C14.9887 0.391665 13.9334 2.29122 13.3569 6.49183C13.3397 6.64164 13.2646 6.77891 13.1477 6.87399C13.0309 6.96916 12.8816 7.01469 12.7316 7.00099C12.6498 6.99529 12.5702 6.9725 12.4977 6.9341C12.4253 6.89563 12.3617 6.84237 12.3111 6.77783C12.2604 6.71321 12.2238 6.63869 12.2037 6.55909C12.1835 6.47948 12.1803 6.39645 12.1942 6.31557C12.4582 4.17812 13.0584 2.09611 13.9725 0.146873L14.0507 3.50505e-10C13.7575 3.50505e-10 13.4546 3.50505e-10 13.1517 3.50505e-10C9.67383 -2.53996e-05 6.33749 1.38044 3.87272 3.83936C1.40797 6.29825 0.0155034 9.63539 0 13.1207C0 13.2382 0 13.3557 0 13.4732L0.146565 13.4046C2.82382 12.3374 8.02198 11.6422 13.5426 11.6422Z" fill="white"/>
<path d="M17.8224 18.9957C17.7875 18.9558 17.7435 18.9251 17.6941 18.9064C17.6447 18.8876 17.5914 18.8812 17.539 18.888C16.2395 18.9663 14.8911 19.0055 13.5427 19.0055C9.30607 19.1105 5.07587 18.6161 0.977154 17.5367L0.791504 17.4878C1.8871 20.6521 4.14555 23.2789 7.10663 24.8325C10.0677 26.3862 13.5086 26.75 16.728 25.8497C17.3326 23.7192 17.7317 21.5355 17.9201 19.3286C17.9338 19.2694 17.932 19.2076 17.9149 19.1492C17.8978 19.0909 17.8659 19.038 17.8224 18.9957Z" fill="white"/>
<path d="M13.7282 12.7485C5.66711 12.7485 1.44604 14.0998 1.44604 14.8439C1.44604 15.5881 5.66711 16.9295 13.7282 16.9295C14.9887 16.9295 16.2393 16.9295 17.4607 16.812C17.6389 16.8001 17.8064 16.7224 17.9309 16.5941C18.0554 16.4657 18.1281 16.2956 18.1349 16.1168C18.1349 15.3139 18.1838 14.4914 18.1838 13.6494V12.915C16.7572 12.8073 15.2622 12.7485 13.7282 12.7485Z" fill="white"/>
<path d="M25.5316 17.5759C24.1001 18.0654 22.6289 18.4291 21.1346 18.6628C20.9774 18.6823 20.8316 18.7551 20.7214 18.8691C20.6112 18.9831 20.5432 19.1314 20.5288 19.2894C20.3932 21.0818 20.0956 22.8581 19.6396 24.5964C22.3781 23.0375 24.4684 20.5468 25.5316 17.5759Z" fill="white"/>
<path d="M20.7145 16.0582C20.7122 16.1083 20.7216 16.1583 20.7419 16.2043C20.7623 16.2501 20.793 16.2906 20.8317 16.3225C20.869 16.3582 20.9139 16.3847 20.9631 16.4001C21.0122 16.4154 21.0643 16.419 21.1151 16.4107C22.8267 16.2317 24.51 15.8436 26.1276 15.2553C26.2444 14.5496 26.3065 13.836 26.3133 13.1207C26.3133 12.7388 26.3133 12.3668 26.2546 12.0045C26.2546 11.8968 26.2546 11.7989 26.2546 11.7009C26.2546 11.3387 26.1569 10.9764 26.0885 10.6141C26.0885 10.4574 26.0201 10.291 25.981 10.1343C25.8203 9.42109 25.5979 8.72335 25.3166 8.04871C25.3166 8.04871 25.3166 7.99975 25.3166 7.98017C24.0607 5.04477 21.7923 2.66046 18.9264 1.26318C20.1575 4.30834 20.734 9.20411 20.734 14.3055C20.734 14.9028 20.7242 15.4903 20.7145 16.0582Z" fill="white"/>
</svg>
