<?xml version="1.0" encoding="UTF-8" standalone="no"?>
<!-- Created with Inkscape (http://www.inkscape.org/) -->

<svg
   width="120"
   height="120"
   viewBox="0 0 120 120"
   version="1.1"
   id="svg348"
   inkscape:version="1.1.1 (3bf5ae0d25, 2021-09-20)"
   sodipodi:docname="120x120.svg"
   xmlns:inkscape="http://www.inkscape.org/namespaces/inkscape"
   xmlns:sodipodi="http://sodipodi.sourceforge.net/DTD/sodipodi-0.dtd"
   xmlns="http://www.w3.org/2000/svg"
   xmlns:svg="http://www.w3.org/2000/svg">
  <sodipodi:namedview
     id="namedview350"
     pagecolor="#ffffff"
     bordercolor="#666666"
     borderopacity="1.0"
     inkscape:pageshadow="2"
     inkscape:pageopacity="0.0"
     inkscape:pagecheckerboard="0"
     inkscape:document-units="mm"
     showgrid="false"
     units="px"
     viewbox-height="16"
     inkscape:zoom="0.5"
     inkscape:cx="-8"
     inkscape:cy="3"
     inkscape:window-width="1920"
     inkscape:window-height="1129"
     inkscape:window-x="-8"
     inkscape:window-y="-8"
     inkscape:window-maximized="1"
     inkscape:current-layer="layer1" />
  <defs
     id="defs345" />
  <g
     inkscape:label="Слой 1"
     inkscape:groupmode="layer"
     id="layer1">
    <path
       id="path14"
       style="fill:#ee233b;fill-opacity:1;fill-rule:nonzero;stroke:none;stroke-width:0.312176"
       d="M 60.002269,7.4997149e-6 C 26.86309,7.4997149e-6 0,26.862081 0,60.000007 0,60.542558 0.06074999,61.065011 0.07349999,61.605067 0.30142494,61.492992 0.5252999,61.384471 0.75944986,61.275823 12.884645,56.339768 36.568141,53.181926 61.776926,53.181926 c 7.276679,0 14.346837,0.248315 21.040353,0.722507 -0.989932,-33.954562 -7.123633,-51.9655468 -11.5148,-51.9655468 -2.959499,0 -7.752208,8.6431818 -10.389845,27.7661718 -0.19635,1.402274 -1.361723,2.431332 -2.862697,2.309275 -0.75018,-0.06225 -1.435763,-0.426509 -1.897793,-1.010594 -0.468299,-0.596227 -0.669149,-1.361686 -0.553349,-2.094348 1.931789,-12.096643 4.729131,-21.7434284 8.135361,-28.04054903 0.11205,-0.22446647 0.2292,-0.44113323 0.347549,-0.6630498 C 62.726831,0.1130957 61.379321,0 60.002591,0 Z M 86.141511,6.0589972 c 5.779132,13.5878788 8.432601,36.0048268 8.432601,59.2637738 0,2.713394 -0.03525,5.396195 -0.109725,8.025304 -0.0135,0.46826 0.17805,0.917917 0.530475,1.230087 0.355875,0.314667 0.812348,0.461316 1.29873,0.393264 C 105.503,73.638454 114.43026,71.951758 119.14485,69.730972 119.65935,66.55931 120,63.319433 120,59.995434 c 0,-1.714446 -0.11475,-3.406638 -0.25155,-5.089553 -0.0413,-0.454836 -0.0563,-0.912861 -0.10972,-1.362701 -0.17828,-1.669491 -0.43433,-3.316495 -0.75,-4.943221 -0.14393,-0.736411 -0.32558,-1.463646 -0.49388,-2.190382 -0.75829,-3.271555 -1.74094,-6.453253 -3.00903,-9.493177 -0.0367,-0.0974 -0.0675,-0.204 -0.1143,-0.306378 C 109.59632,23.224425 99.172669,12.386392 86.141526,6.0589957 Z M 62.622596,58.225751 c -36.787658,0 -56.0283347,6.197974 -56.0283347,9.516042 0,3.321815 19.2406767,9.516047 56.0283347,9.516047 5.725439,0 11.446048,-0.192818 17.006967,-0.562479 1.688909,-0.112045 3.019544,-1.470979 3.091349,-3.159821 0.1464,-3.637419 0.219525,-7.402838 0.219525,-11.19884 0,-1.142548 -0.009,-2.26944 -0.018,-3.383891 C 76.414043,58.468635 69.584904,58.225734 62.622911,58.225734 Z M 3.4068819,79.786609 C 11.589515,103.18978 33.806979,120 60.002269,120 c 5.657069,0 11.104783,-0.83459 16.293582,-2.29555 1.935224,-5.51668 4.688489,-19.880764 5.418996,-29.663903 0.0375,-0.474506 -0.107175,-0.936368 -0.438975,-1.280388 -0.3303,-0.342737 -0.79731,-0.552655 -1.262145,-0.489282 -5.950836,0.368086 -12.09167,0.562479 -18.241676,0.562479 -22.913621,0 -44.679307,-2.596161 -57.5602918,-6.822648 -0.2840999,-0.084 -0.5366999,-0.155694 -0.8048473,-0.224092 z M 116.44217,80.193618 c -5.59962,1.876774 -13.77406,4.130124 -20.048003,4.938645 -1.467262,0.186368 -2.627025,1.391528 -2.757517,2.867164 -0.63405,7.267659 -2.117812,17.859733 -4.047104,24.162793 12.387424,-7.04572 21.986004,-18.366984 26.852624,-31.968602 z"
       inkscape:export-filename="C:\Users\bodee\Desktop\logo\favicon\64x64.png"
       inkscape:export-xdpi="383.99997"
       inkscape:export-ydpi="383.99997" />
  </g>
</svg>
